<?xml version="1.0" encoding="UTF-8"?>
<svg xmlns="http://www.w3.org/2000/svg" xmlns:xlink="http://www.w3.org/1999/xlink" width="120pt" height="120pt" viewBox="0 0 120 120" version="1.1">
<g id="surface1">
<path style=" stroke:none;fill-rule:evenodd;fill:rgb(99.215686%,2.745098%,2.745098%);fill-opacity:1;" d="M 60 117 C 91.480469 117 117 91.480469 117 60 C 117 28.519531 91.480469 3 60 3 C 28.519531 3 3 28.519531 3 60 C 3 91.480469 28.519531 117 60 117 Z M 60 120 C 93.136719 120 120 93.136719 120 60 C 120 26.863281 93.136719 0 60 0 C 26.863281 0 0 26.863281 0 60 C 0 93.136719 26.863281 120 60 120 Z M 55.050781 60.707031 L 36.664062 42.324219 L 42.324219 36.664062 L 60.707031 55.050781 L 78.386719 37.371094 L 84.042969 43.03125 L 66.363281 60.707031 L 83.335938 77.675781 L 77.675781 83.335938 L 60.707031 66.363281 L 43.03125 84.042969 L 37.371094 78.386719 Z M 55.050781 60.707031 "/>
</g>
</svg>
