<?xml version="1.0" encoding="UTF-8"?>
<svg xmlns="http://www.w3.org/2000/svg" xmlns:xlink="http://www.w3.org/1999/xlink" width="120pt" height="120pt" viewBox="0 0 120 120" version="1.1">
<g id="surface1">
<path style=" stroke:none;fill-rule:evenodd;fill:rgb(0%,0%,0%);fill-opacity:1;" d="M 117 60 C 117 91.480469 91.480469 117 60 117 C 28.519531 117 3 91.480469 3 60 C 3 28.519531 28.519531 3 60 3 C 91.480469 3 117 28.519531 117 60 Z M 120 60 C 120 93.136719 93.136719 120 60 120 C 26.863281 120 0 93.136719 0 60 C 0 26.863281 26.863281 0 60 0 C 93.136719 0 120 26.863281 120 60 Z M 57.550781 76.886719 L 86.769531 48.886719 L 81.230469 43.113281 L 54.425781 68.800781 L 39.347656 57.855469 L 34.652344 64.332031 L 52.433594 77.238281 L 55.136719 79.199219 Z M 57.550781 76.886719 "/>
</g>
</svg>
